<svg width="16" height="16" viewBox="0 0 16 16" fill="none" xmlns="http://www.w3.org/2000/svg">
<g clip-path="url(#clip0)">
<path d="M14.8333 0.666626H13.1667C12.5233 0.666626 12 1.18996 12 1.83329V9.49996C12 10.1433 12.5233 10.6666 13.1667 10.6666H14.8333C15.4767 10.6666 16 10.1433 16 9.49996V1.83329C16 1.18996 15.4767 0.666626 14.8333 0.666626Z" fill="#909090"/>
<path d="M7.47933 15.5C8.146 15.5 8.47933 15.1667 8.47933 13.5C8.47933 11.916 10.0133 10.6413 11 9.98467V1.726C9.93267 1.232 7.796 0.499999 4.47933 0.499999H3.41267C2.11266 0.499999 1.006 1.43333 0.785999 2.71333L0.0393317 7.04667C-0.240668 8.68 1.01267 10.1667 2.666 10.1667H5.81267C5.81267 10.1667 5.31267 11.1667 5.31267 12.8333C5.31267 14.8333 6.81267 15.5 7.47933 15.5V15.5Z" fill="#909090"/>
</g>
<defs>
<clipPath id="clip0">
<rect width="16" height="16" fill="white" transform="translate(16 16) rotate(180)"/>
</clipPath>
</defs>
</svg>
