<?xml version="1.0" encoding="iso-8859-1"?>
<!-- Generator: Adobe Illustrator 16.0.0, SVG Export Plug-In . SVG Version: 6.00 Build 0)  -->
<!DOCTYPE svg PUBLIC "-//W3C//DTD SVG 1.1//EN" "http://www.w3.org/Graphics/SVG/1.1/DTD/svg11.dtd">
<svg version="1.1" id="Capa_1" xmlns="http://www.w3.org/2000/svg" xmlns:xlink="http://www.w3.org/1999/xlink" x="0px" y="0px"
	 width="15px" height="15px" viewBox="0 0 152.013 152.013" style="enable-background:new 0 0 152.013 152.013;"
	 xml:space="preserve">
<g>
	<g>
		<path fill = 'white' d="M0,20.358v43.429h16.288V20.358c0-1.5,1.22-2.715,2.716-2.715h43.432V1.355H19C8.523,1.358,0,9.881,0,20.358z"/>
		<path fill = 'white' d="M133.013,1.358H89.578v16.288h43.435c1.495,0,2.71,1.22,2.71,2.715v43.429h16.29V20.358
			C152.013,9.881,143.491,1.358,133.013,1.358z"/>
		<path fill = 'white' d="M16.288,131.657V88.224H0v43.434c0,10.472,8.526,19,19.003,19h43.432v-16.286H19
			C17.504,134.371,16.288,133.156,16.288,131.657z"/>
		<path fill = 'white' d="M135.723,131.657c0,1.499-1.218,2.711-2.71,2.711H89.578v16.289h43.435c10.479,0,19-8.531,19-19.007V88.224h-16.29
			V131.657z"/>
	</g>
</g>
<g>
</g>
<g>
</g>
<g>
</g>
<g>
</g>
<g>
</g>
<g>
</g>
<g>
</g>
<g>
</g>
<g>
</g>
<g>
</g>
<g>
</g>
<g>
</g>
<g>
</g>
<g>
</g>
<g>
</g>
</svg>
